# xmcd CD database file
#
# Track frame offsets:
#	150
#	29138
#	43457
#	59230
#	79897
#	102327
#	124299
#	147666
#	173954
#	196823
#	218877
#
# Disc length: 3144 seconds
#
# Revision: 0
# Processed by: cddbd v1.5.2PL0 Copyright (c) Steve Scherf et al.
# Submitted via: CDex 1.51
#
DISCID=b80c460b
DTITLE=La Banda Sigilosa - Siempre Pegando
DYEAR=2006
DGENRE=Salsa
TTITLE0=Siva-Barrio 78
TTITLE1=Ruñidera
TTITLE2=En Cadenas
TTITLE3=La Salsa
TTITLE4=El Cazanguero
TTITLE5=Son De La Loma
TTITLE6=Sonero (Tierra Dumbo)
TTITLE7=Vengo de Oriente
TTITLE8=Guararé
TTITLE9=Se Quema La Trocha
TTITLE10=Virgen De Medianoche
EXTD=YEAR: 2006
EXTT0=
EXTT1=
EXTT2=
EXTT3=
EXTT4=
EXTT5=
EXTT6=
EXTT7=
EXTT8=
EXTT9=
EXTT10=
PLAYORDER=
